# xmcd
#
# Track frame offsets:
#	150
#	14245
#	28823
#	43137
#	56560
#	68330
#	82829
#	97273
#	110496
#	123600
#
# Disc length: 1811 seconds
#
# Revision: 1
# Processed by: cddbd v1.5.1PL0 Copyright (c) Steve Scherf et al.
# Submitted via: dBpowerAMP V4.0
#
DISCID=8907110a
DTITLE=La Contra - Sigues Bailando - Sigues Bailando
DYEAR=1900
DGENRE=Tejano
TTITLE0=Sigue Bailando
TTITLE1=El Mexi - Mexi
TTITLE2=Cuando te Fuiste
TTITLE3=Me Alejare
TTITLE4=Cumbia De Acordioncito (Cumbia De Violincito)
TTITLE5=Fuiste Tu
TTITLE6=Cumbia Regresa
TTITLE7=El Uy Uy Uy
TTITLE8=Quieres Amar?
TTITLE9=Infiel
EXTD=Genre - Tejano (from Texas]\nGroup - La Contra\nAlbum - Sigues Bailando
EXTT0=
EXTT1=
EXTT2=
EXTT3=
EXTT4=
EXTT5=
EXTT6=
EXTT7=
EXTT8=
EXTT9=
PLAYORDER=
